<?xml version="1.0" standalone="no"?>
<!DOCTYPE svg PUBLIC "-//W3C//DTD SVG 20010904//EN"
 "http://www.w3.org/TR/2001/REC-SVG-20010904/DTD/svg10.dtd">
<svg version="1.0" xmlns="http://www.w3.org/2000/svg"
 width="700.000000pt" height="700.000000pt" viewBox="0 0 700.000000 700.000000"
 preserveAspectRatio="xMidYMid meet">
<metadata>
Created by potrace 1.11, written by Peter Selinger 2001-2013
</metadata>
<g transform="translate(0.000000,700.000000) scale(0.100000,-0.100000)"
fill="#000000" stroke="none">
<path d="M1280 3500 l0 -1720 200 0 200 0 0 913 c0 501 -5 1031 -10 1177 -9
249 -34 683 -45 778 -12 107 27 23 144 -316 69 -196 276 -773 462 -1282 l337
-925 140 -3 c127 -2 142 -1 151 15 17 32 666 1819 791 2179 124 357 134 383
145 372 4 -3 -3 -134 -14 -290 -34 -466 -41 -738 -41 -1700 l0 -918 990 0 990
0 0 185 0 185 -785 0 -785 0 0 625 0 625 635 0 635 0 0 185 0 185 -632 2 -633
3 -3 537 -2 538 757 2 758 3 3 183 2 182 -1024 0 -1024 0 -20 -57 c-11 -32
-161 -458 -335 -948 -173 -490 -363 -1037 -422 -1217 -65 -201 -111 -328 -119
-328 -8 0 -52 115 -111 288 -54 158 -251 712 -438 1232 -186 520 -346 964
-354 988 l-15 42 -264 0 -264 0 0 -1720z"/>
</g>
</svg>
