<?xml version="1.0" standalone="no"?>
<!DOCTYPE svg PUBLIC "-//W3C//DTD SVG 20010904//EN"
 "http://www.w3.org/TR/2001/REC-SVG-20010904/DTD/svg10.dtd">
<svg version="1.0" xmlns="http://www.w3.org/2000/svg"
 width="1024.000000pt" height="1024.000000pt" viewBox="0 0 1024.000000 1024.000000"
 preserveAspectRatio="xMidYMid meet">
<metadata>
Created by potrace 1.11, written by Peter Selinger 2001-2013
</metadata>
<g transform="translate(0.000000,1024.000000) scale(0.100000,-0.100000)"
fill="#000000" stroke="none">
<path d="M1870 5120 l0 -2520 285 0 285 0 0 1553 c0 1599 -1 1652 -45 2312
-30 438 -29 397 -9 393 11 -2 75 -173 224 -598 114 -327 417 -1169 673 -1870
l465 -1275 213 -2 214 -3 474 1302 c261 716 564 1559 674 1875 131 374 205
573 214 573 18 0 17 -28 -7 -348 -56 -737 -53 -624 -57 -2319 l-4 -1593 1450
0 1451 0 0 275 0 275 -1150 0 -1150 0 0 910 0 910 935 0 935 0 0 275 0 275
-935 0 -935 0 0 790 0 790 1110 0 1110 0 0 270 0 270 -1498 0 -1497 0 -485
-1367 c-266 -751 -514 -1459 -551 -1572 -37 -113 -111 -340 -164 -503 -77
-240 -99 -298 -113 -298 -14 0 -50 94 -186 493 -92 270 -391 1112 -664 1870
l-495 1377 -384 0 -383 0 0 -2520z"/>
</g>
</svg>
